<svg xmlns="http://www.w3.org/2000/svg" xmlns:xlink="http://www.w3.org/1999/xlink" width="764" height="764" viewBox="0 0 764 764" fill="none">
<path     fill="#FF2D51"  d="M389.6 0C512 0 573.2 0 613.56 15.43Q616.431 16.5274 619.271 17.6999Q622.112 18.8723 624.921 20.1189Q627.73 21.3655 630.505 22.6855Q633.28 24.0055 636.02 25.3979Q638.76 26.7903 641.462 28.2541Q644.164 29.718 646.826 31.2523Q649.489 32.7866 652.111 34.3904Q654.732 35.9941 657.311 37.6661Q659.889 39.3381 662.423 41.0772Q664.957 42.8164 667.444 44.6215Q669.931 46.4266 672.37 48.2964Q674.809 50.1661 677.198 52.0993Q679.587 54.0325 681.924 56.0278Q684.261 58.023 686.546 60.079Q688.83 62.1349 691.059 64.2502Q693.288 66.3654 695.462 68.5385Q697.635 70.7115 699.75 72.9409Q701.865 75.1702 703.921 77.4544Q705.977 79.7385 707.972 82.0759Q709.967 84.4133 711.901 86.8022Q713.834 89.1911 715.704 91.63Q717.573 94.0689 719.378 96.5561Q721.183 99.0432 722.923 101.577Q724.662 104.111 726.334 106.689Q728.006 109.268 729.61 111.889Q731.213 114.511 732.748 117.173Q734.282 119.836 735.746 122.538Q737.21 125.24 738.602 127.98Q739.995 130.72 741.314 133.495Q742.634 136.27 743.881 139.079Q745.128 141.888 746.3 144.729Q747.473 147.569 748.57 150.44C764 190.8 764 252 764 374.4L764 389.6C764 512 764 573.2 748.57 613.56Q747.473 616.431 746.3 619.271Q745.128 622.112 743.881 624.921Q742.634 627.73 741.314 630.505Q739.994 633.28 738.602 636.02Q737.21 638.76 735.746 641.462Q734.282 644.164 732.748 646.826Q731.213 649.489 729.61 652.111Q728.006 654.732 726.334 657.311Q724.662 659.889 722.923 662.423Q721.183 664.957 719.378 667.444Q717.573 669.931 715.704 672.37Q713.834 674.809 711.901 677.198Q709.967 679.587 707.972 681.924Q705.977 684.261 703.921 686.546Q701.865 688.83 699.75 691.059Q697.635 693.288 695.462 695.461Q693.288 697.635 691.059 699.75Q688.83 701.865 686.546 703.921Q684.261 705.977 681.924 707.972Q679.587 709.967 677.198 711.901Q674.809 713.834 672.37 715.704Q669.931 717.573 667.444 719.378Q664.957 721.183 662.423 722.923Q659.889 724.662 657.311 726.334Q654.732 728.006 652.111 729.61Q649.489 731.213 646.827 732.748Q644.164 734.282 641.462 735.746Q638.76 737.21 636.02 738.602Q633.28 739.995 630.505 741.314Q627.73 742.634 624.921 743.881Q622.112 745.128 619.271 746.3Q616.431 747.473 613.56 748.57C573.2 764 512 764 389.6 764L374.4 764C252 764 190.8 764 150.44 748.57Q147.569 747.473 144.729 746.3Q141.888 745.128 139.079 743.881Q136.27 742.634 133.495 741.314Q130.72 739.994 127.98 738.602Q125.24 737.21 122.538 735.746Q119.836 734.282 117.173 732.748Q114.511 731.213 111.889 729.61Q109.268 728.006 106.689 726.334Q104.111 724.662 101.577 722.923Q99.0432 721.183 96.5561 719.378Q94.0689 717.573 91.6301 715.704Q89.1912 713.834 86.8022 711.901Q84.4133 709.967 82.0759 707.972Q79.7386 705.977 77.4544 703.921Q75.1703 701.865 72.9409 699.75Q70.7115 697.635 68.5385 695.462Q66.3654 693.288 64.2502 691.059Q62.135 688.83 60.079 686.546Q58.023 684.261 56.0278 681.924Q54.0325 679.587 52.0993 677.198Q50.1662 674.809 48.2964 672.37Q46.4266 669.931 44.6215 667.444Q42.8164 664.957 41.0772 662.423Q39.3381 659.889 37.6661 657.311Q35.9941 654.732 34.3904 652.111Q32.7866 649.489 31.2523 646.827Q29.718 644.164 28.2541 641.462Q26.7903 638.76 25.3979 636.02Q24.0055 633.28 22.6855 630.505Q21.3656 627.73 20.1189 624.921Q18.8723 622.112 17.6999 619.271Q16.5274 616.431 15.43 613.56C0 573.2 0 512 0 389.6L0 374.4C0 252 0 190.8 15.43 150.44Q16.5274 147.569 17.6999 144.729Q18.8723 141.888 20.1189 139.079Q21.3655 136.27 22.6855 133.495Q24.0055 130.72 25.3979 127.98Q26.7903 125.24 28.2541 122.538Q29.718 119.836 31.2523 117.173Q32.7866 114.511 34.3904 111.889Q35.9941 109.268 37.6661 106.689Q39.3381 104.111 41.0772 101.577Q42.8164 99.0432 44.6215 96.5561Q46.4266 94.0689 48.2964 91.63Q50.1661 89.1911 52.0993 86.8022Q54.0325 84.4132 56.0278 82.0759Q58.023 79.7385 60.079 77.4544Q62.1349 75.1702 64.2502 72.9409Q66.3654 70.7115 68.5385 68.5385Q70.7115 66.3654 72.9409 64.2502Q75.1702 62.1349 77.4544 60.079Q79.7385 58.023 82.0759 56.0278Q84.4133 54.0325 86.8022 52.0993Q89.1911 50.1661 91.63 48.2963Q94.0689 46.4266 96.5561 44.6215Q99.0432 42.8164 101.577 41.0772Q104.111 39.3381 106.689 37.6661Q109.268 35.9941 111.889 34.3904Q114.511 32.7866 117.173 31.2523Q119.836 29.718 122.538 28.2541Q125.24 26.7903 127.98 25.3979Q130.72 24.0055 133.495 22.6855Q136.27 21.3656 139.079 20.1189Q141.888 18.8723 144.729 17.6999Q147.569 16.5274 150.44 15.43C190.8 0 252 0 374.4 0L389.6 0Z">
</path>
<path     fill="#FFF143"  d="M332.719 530.233C250.604 530.233 197.099 473.214 197.099 382.859C197.099 294.437 250.604 239.833 332.719 239.833C414.834 239.833 468.319 294.437 468.319 382.859C468.319 473.214 414.834 530.233 332.719 530.233ZM462.101 626C479.865 626 496.319 624.574 509.422 622.253C519.556 620.457 524.867 609.973 521.672 600.19L521.672 600.19C518.594 590.764 508.798 585.394 498.979 586.773C490.238 588 480.093 588.797 468.31 588.797C435.186 588.797 409.699 592.479 390.316 585.265C376.545 580.139 383.043 563.125 397.192 559.163C476.289 537.012 527.418 473.493 527.418 382.859C527.418 269.312 447.182 200.701 332.719 200.701C218.255 200.701 138 269.312 138 382.859C138 483.003 200.435 550.371 294.097 564.614C300.676 565.615 306.422 569.513 310.065 575.082C336.704 615.798 383.663 626 462.101 626Z">
</path>
<path     fill="#FFF143"  d="M591.178 625.782L591.178 625.782C571.947 625.782 556.356 610.192 556.356 590.96L556.356 357.479C556.356 333.475 553.016 309.572 543.278 287.631C516.461 227.215 480.655 190.856 451.632 190.856C437.616 190.856 277.59 187.463 208.605 188.871C192.432 189.201 174.643 176.744 171.037 160.974L171.037 160.974C168.49 149.835 174.085 140.415 185.488 139.694C245.903 135.874 428.772 139.713 444.324 139.713C489.562 139.713 531.798 177.806 560.557 237.604C560.719 237.941 561.141 238.326 561.514 238.326L561.514 238.326C562.02 238.326 562.441 237.937 562.481 237.432L567.08 179.112C568.29 163.764 581.098 151.926 596.494 151.926L596.494 151.926C612.79 151.926 626 165.137 626 181.432L626 590.96C626 610.192 610.41 625.782 591.178 625.782Z">
</path>
</svg>
